<svg width="74" height="74" viewBox="0 0 74 74" fill="none" xmlns="http://www.w3.org/2000/svg">
<g opacity="0.8">
<path fill-rule="evenodd" clip-rule="evenodd" d="M67.5504 36.7752C67.5504 19.7781 53.7723 6 36.7752 6C19.7781 6 6 19.7781 6 36.7752C6 53.7723 19.7781 67.5504 36.7752 67.5504C53.7723 67.5504 67.5504 53.7723 67.5504 36.7752ZM32.4588 30.0545L32.4584 30.0192L32.4582 30.007C32.4336 28.9074 31.5629 28.0252 30.4933 28.0252C29.4084 28.0252 28.5278 28.9331 28.5278 30.0545L28.5278 44.9895L28.5281 45.0248L28.5284 45.0369C28.553 46.1366 29.4238 47.0188 30.4933 47.0188C31.5783 47.0188 32.4588 46.1108 32.4588 44.9895L32.4588 30.0545ZM45.5112 30.0545L45.5107 30.0178L45.5105 30.007C45.4859 28.9074 44.6152 28.0252 43.5456 28.0252C42.4607 28.0252 41.5802 28.9332 41.5802 30.0545L41.5801 44.9895L41.5804 45.0248L41.5807 45.0369C41.6054 46.1366 42.4761 47.0188 43.5456 47.0188C44.6305 47.0188 45.5111 46.1108 45.5111 44.9895L45.5112 30.0545ZM25.931 35.2579L25.9306 35.2227L25.9304 35.2104C25.9057 34.1108 25.035 33.2286 23.9655 33.2286C22.8806 33.2286 22.0001 34.1365 22.0001 35.2579L22 39.786L22.0003 39.8213L22.0006 39.8335C22.0253 40.9332 22.8959 41.8154 23.9655 41.8154C25.0504 41.8154 25.931 40.9074 25.931 39.786L25.931 35.2579ZM52 35.2579L51.9996 35.2227L51.9994 35.2105C51.9747 34.1108 51.104 33.2286 50.0345 33.2286C48.9496 33.2286 48.069 34.1365 48.069 35.2579L48.069 39.786L48.0693 39.8213L48.0696 39.8335C48.0943 40.9331 48.9649 41.8154 50.0345 41.8154C51.1194 41.8154 51.9999 40.9073 51.9999 39.786L52 35.2579ZM38.9476 26.0299C38.9476 24.9088 38.0677 24 36.9822 24C35.8967 24 35.0167 24.9088 35.0167 26.0299V48.9701C35.0167 50.0912 35.8967 51 36.9822 51C38.0677 51 38.9476 50.0912 38.9476 48.9701V26.0299Z" fill="#FFFDFA"/>
</g>
</svg>
