<svg width="74" height="74" viewBox="0 0 74 74" fill="none" xmlns="http://www.w3.org/2000/svg">
<g opacity="0.8">
<path d="M36.9305 6.1543C53.9276 6.1543 67.7057 19.9323 67.7057 36.9295C67.7057 53.9266 53.9276 67.7047 36.9305 67.7047C19.9333 67.7047 6.15527 53.9266 6.15527 36.9295C6.15527 19.9323 19.9333 6.1543 36.9305 6.1543ZM32.7081 26.666C30.8247 26.666 29.2982 28.1924 29.2982 30.0759V44.6725C29.2987 45.2733 29.4579 45.8632 29.7597 46.3827C30.0614 46.9021 30.4951 47.3326 31.0167 47.6306C31.5383 47.9286 32.1294 48.0835 32.7302 48.0796C33.3309 48.0757 33.9199 47.9132 34.4377 47.6085L46.8185 40.3117C47.3297 40.0104 47.7533 39.5809 48.0477 39.0657C48.342 38.5506 48.4968 37.9675 48.4968 37.3742C48.4968 36.7809 48.342 36.1978 48.0477 35.6826C47.7533 35.1675 47.3297 34.738 46.8185 34.4367L34.4377 27.1368C33.9145 26.8291 33.3144 26.666 32.7081 26.666Z" fill="#FFFDFA"/>
</g>
</svg>
