<svg width="15" height="15" viewBox="0 0 15 15" fill="none" xmlns="http://www.w3.org/2000/svg">
<g clip-path="url(#clip0)">
<path d="M1.09394 12.8438H13.0129C13.2932 12.8497 13.56 12.9651 13.7561 13.1654C13.9522 13.3657 14.0621 13.6348 14.0621 13.9151C14.0621 14.1954 13.9522 14.4646 13.7561 14.6648C13.56 14.8651 13.2932 14.9805 13.0129 14.9864H1.09394C0.951369 14.9894 0.809638 14.9639 0.677052 14.9114C0.544466 14.8589 0.423692 14.7805 0.321809 14.6807C0.219925 14.5809 0.138982 14.4618 0.0837229 14.3303C0.0284637 14.1989 0 14.0577 0 13.9151C0 13.7725 0.0284637 13.6313 0.0837229 13.4999C0.138982 13.3684 0.219925 13.2493 0.321809 13.1495C0.423692 13.0498 0.544466 12.9713 0.677052 12.9188C0.809638 12.8663 0.951369 12.8408 1.09394 12.8438ZM6.94516 1.46011C6.96204 1.47886 6.97141 1.49667 6.98969 1.51589C7.35765 1.92369 7.86904 2.48102 8.49574 3.16678C9.03478 3.74332 9.56211 4.31752 9.9746 4.75438L4.10463 10.8381L3.7287 11.2093C3.34049 11.5958 2.81497 11.8127 2.26718 11.8126H0.590517C0.277871 11.8126 0.0261599 11.5539 0.0261599 11.2281V9.52189C0.0257916 9.22534 0.084173 8.93166 0.197933 8.6578C0.311693 8.38393 0.478578 8.13532 0.688952 7.92631L1.00347 7.61226L6.94516 1.45964V1.46011ZM7.84091 0.550764C8.00621 0.377117 8.205 0.238782 8.42526 0.144119C8.64553 0.0494559 8.88269 0.000428771 9.12244 0C9.60524 0 10.0674 0.198275 10.404 0.549827L10.9425 1.10762C11.6513 1.84072 11.6513 3.0285 10.9425 3.75973L10.8797 3.83472C9.85827 2.74782 8.84531 1.65298 7.84091 0.550295V0.550764Z" fill="#AC552A"/>
</g>
<defs>
<clipPath id="clip0">
<rect width="15" height="15" fill="white"/>
</clipPath>
</defs>
</svg>
